<?xml version="1.0" standalone="no"?>
<svg xmlns:xlink="http://www.w3.org/1999/xlink" id="wave" style="transform:rotate(180deg); transition: 0.3s" viewBox="0 0 1440 100" version="1.1" xmlns="http://www.w3.org/2000/svg"><defs><linearGradient id="sw-gradient-0" x1="0" x2="0" y1="1" y2="0"><stop stop-color="rgba(255, 249, 234, 1)" offset="0%"/><stop stop-color="rgba(255, 249, 234, 1)" offset="100%"/></linearGradient></defs><path style="transform:translate(0, 0px); opacity:1" fill="url(#sw-gradient-0)" d="M0,40L40,36.7C80,33,160,27,240,23.3C320,20,400,20,480,30C560,40,640,60,720,66.7C800,73,880,67,960,56.7C1040,47,1120,33,1200,31.7C1280,30,1360,40,1440,41.7C1520,43,1600,37,1680,36.7C1760,37,1840,43,1920,41.7C2000,40,2080,30,2160,30C2240,30,2320,40,2400,51.7C2480,63,2560,77,2640,70C2720,63,2800,37,2880,26.7C2960,17,3040,23,3120,21.7C3200,20,3280,10,3360,20C3440,30,3520,60,3600,68.3C3680,77,3760,63,3840,58.3C3920,53,4000,57,4080,48.3C4160,40,4240,20,4320,13.3C4400,7,4480,13,4560,21.7C4640,30,4720,40,4800,46.7C4880,53,4960,57,5040,53.3C5120,50,5200,40,5280,40C5360,40,5440,50,5520,48.3C5600,47,5680,33,5720,26.7L5760,20L5760,100L5720,100C5680,100,5600,100,5520,100C5440,100,5360,100,5280,100C5200,100,5120,100,5040,100C4960,100,4880,100,4800,100C4720,100,4640,100,4560,100C4480,100,4400,100,4320,100C4240,100,4160,100,4080,100C4000,100,3920,100,3840,100C3760,100,3680,100,3600,100C3520,100,3440,100,3360,100C3280,100,3200,100,3120,100C3040,100,2960,100,2880,100C2800,100,2720,100,2640,100C2560,100,2480,100,2400,100C2320,100,2240,100,2160,100C2080,100,2000,100,1920,100C1840,100,1760,100,1680,100C1600,100,1520,100,1440,100C1360,100,1280,100,1200,100C1120,100,1040,100,960,100C880,100,800,100,720,100C640,100,560,100,480,100C400,100,320,100,240,100C160,100,80,100,40,100L0,100Z"/></svg>